<svg width="292" height="45" viewBox="0 0 292 45" fill="none" xmlns="http://www.w3.org/2000/svg">
<path d="M288.739 0H3.15562C1.41282 0 0 1.00736 0 2.25V42.75C0 43.9926 1.41282 45 3.15562 45H288.739C290.482 45 291.895 43.9926 291.895 42.75V2.25C291.895 1.00736 290.482 0 288.739 0Z" fill="white"/>
<path fill-rule="evenodd" clip-rule="evenodd" d="M52.7895 23.3182C52.7895 22.3255 52.6982 21.371 52.5288 20.4546H39.0244V25.87H46.7412C46.4088 27.62 45.3986 29.1028 43.88 30.0955V33.6082H48.514C51.2253 31.1709 52.7895 27.5819 52.7895 23.3182Z" fill="#4285F4"/>
<path fill-rule="evenodd" clip-rule="evenodd" d="M39.0245 36.9999C42.896 36.9999 46.1417 35.7462 48.5141 33.6081L43.8801 30.0954C42.5962 30.9354 40.9537 31.4317 39.0245 31.4317C35.2899 31.4317 32.1289 28.969 31.0014 25.6599H26.2109V29.2872C28.5703 33.8626 33.4194 36.9999 39.0245 36.9999Z" fill="#34A853"/>
<path fill-rule="evenodd" clip-rule="evenodd" d="M31.0013 25.6599C30.7146 24.8199 30.5516 23.9226 30.5516 22.9999C30.5516 22.0772 30.7146 21.1799 31.0013 20.3399V16.7126H26.2109C25.2398 18.6026 24.6858 20.7408 24.6858 22.9999C24.6858 25.259 25.2398 27.3972 26.2109 29.2872L31.0013 25.6599Z" fill="#FBBC05"/>
<path fill-rule="evenodd" clip-rule="evenodd" d="M39.0245 14.5682C41.1297 14.5682 43.0198 15.2746 44.5059 16.6618L48.6185 12.6464C46.1353 10.3873 42.8895 9 39.0245 9C33.4194 9 28.5703 12.1373 26.2109 16.7127L31.0014 20.34C32.1289 17.0309 35.29 14.5682 39.0245 14.5682Z" fill="#EA4335"/>
</svg>
