<svg width="292" height="45" viewBox="0 0 292 45" fill="none" xmlns="http://www.w3.org/2000/svg">
<path d="M288.844 0H3.2606C1.5178 0 0.10498 1.00736 0.10498 2.25V42.75C0.10498 43.9926 1.5178 45 3.2606 45H288.844C290.587 45 292 43.9926 292 42.75V2.25C292 1.00736 290.587 0 288.844 0Z" fill="#FEE500"/>
<g clip-path="url(#clip0)">
<path d="M53.1844 10C44.4318 10 37.3381 14.9779 37.3381 21.1181C37.3381 25.0664 40.2762 28.5302 44.6915 30.5058L43.1981 35.4578C43.1702 35.5308 43.1661 35.6093 43.1862 35.6843C43.2063 35.7593 43.2498 35.8277 43.3117 35.8818C43.3891 35.9525 43.4938 35.9945 43.6047 35.9993C43.7155 36.0041 43.8243 35.9714 43.9091 35.9077L50.3242 32.0546C51.2694 32.1761 52.223 32.2378 53.1779 32.2392C61.9436 32.2392 69.0242 27.2612 69.0242 21.1181C69.0242 14.975 61.9338 10 53.1844 10Z" fill="black"/>
</g>
<defs>
<clipPath id="clip0">
<rect width="31.6926" height="28" fill="white" transform="translate(37.3381 9)"/>
</clipPath>
</defs>
</svg>
