<svg width="20" height="20" viewBox="0 0 20 20" fill="none" xmlns="http://www.w3.org/2000/svg">
<path d="M10.0555 6.11115C7.88885 6.11115 6.16663 7.83337 6.16663 10C6.16663 12.1667 7.88885 13.8889 10.0555 13.8889C12.2222 13.8889 13.9444 12.1667 13.9444 10C13.9444 7.83337 12.2222 6.11115 10.0555 6.11115ZM10.0555 12.7778C8.49996 12.7778 7.27774 11.5556 7.27774 10C7.27774 8.44448 8.49996 7.22226 10.0555 7.22226C11.6111 7.22226 12.8333 8.44448 12.8333 10C12.8333 11.5556 11.6111 12.7778 10.0555 12.7778Z" fill="#8A9299"/>
<path d="M18.2223 8.1667L16.6667 7.6667L16.3334 6.83336L17.1111 5.38892C17.2778 5.05559 17.2223 4.61114 16.9445 4.33337L15.6111 3.00003C15.3334 2.72226 14.8889 2.6667 14.5556 2.83337L13.1111 3.61114L12.2778 3.27781L11.7778 1.72226C11.6667 1.38892 11.3334 1.11115 10.9445 1.11115H9.05559C8.6667 1.11115 8.33337 1.38892 8.27781 1.77781L7.77781 3.33337C7.44448 3.38892 7.1667 3.50003 6.88892 3.6667L5.44448 2.88892C5.11114 2.72226 4.6667 2.77781 4.38892 3.05559L3.05559 4.38892C2.77781 4.6667 2.72226 5.11114 2.88892 5.44448L3.61114 6.83336C3.50003 7.11114 3.38892 7.44448 3.27781 7.72225L1.72226 8.22225C1.38892 8.33336 1.11115 8.6667 1.11115 9.05559V10.9445C1.11115 11.3334 1.38892 11.6667 1.77781 11.7778L3.33337 12.2778L3.6667 13.1111L2.88892 14.5556C2.72226 14.8889 2.77781 15.3334 3.05559 15.6111L4.38892 16.9445C4.6667 17.2222 5.11114 17.2778 5.44448 17.1111L6.88892 16.3334L7.72226 16.6667L8.22226 18.2778C8.33337 18.6111 8.6667 18.8889 9.05559 18.8889H10.9445C11.3334 18.8889 11.6667 18.6111 11.7778 18.2778L12.2778 16.6667L13.1111 16.3334L14.5556 17.1111C14.8889 17.2778 15.3334 17.2222 15.6111 16.9445L16.9445 15.6111C17.2223 15.3334 17.2778 14.8889 17.1111 14.5556L16.3334 13.1111L16.6667 12.2778L18.2778 11.7778C18.6111 11.6667 18.8889 11.3334 18.8889 10.9445V9.05559C18.8889 8.6667 18.6111 8.27781 18.2223 8.1667ZM17.7778 10.7778L15.7778 11.3889L15.7223 11.6667L15.2223 12.8334L15.0556 13.1111L16.0556 14.9445L14.9445 16.0556L13.1111 15.0556L12.8334 15.2222C12.4445 15.4445 12.0556 15.6111 11.6667 15.7222L11.3889 15.7778L10.7778 17.7778H9.22226L8.61114 15.7778L8.33337 15.7222L7.1667 15.2222L6.88892 15.0556L5.05559 16.0556L3.94448 14.9445L4.94448 13.1111L4.77781 12.8334C4.55559 12.4445 4.38892 12.0556 4.27781 11.6667L4.22226 11.3889L2.22226 10.7778V9.22225L4.11114 8.6667L4.22226 8.38892C4.33337 7.94448 4.50003 7.55559 4.72226 7.1667L4.88892 6.88892L3.94448 5.05559L5.05559 3.94448L6.83337 4.94448L7.11114 4.77781C7.50003 4.55559 7.88892 4.38892 8.33337 4.27781L8.61114 4.1667L9.22226 2.22226H10.7778L11.3889 4.1667L11.6667 4.27781C12.0556 4.38892 12.4445 4.55559 12.8334 4.77781L13.1111 4.94448L14.9445 3.94448L16.0556 5.05559L15.0556 6.88892L15.2223 7.1667C15.4445 7.55559 15.6111 7.94448 15.7223 8.33336L15.7778 8.61114L17.7778 9.22225V10.7778Z" fill="#8A9299"/>
</svg>
